<?xml version="1.0" encoding="utf-8"?>
<!-- Generator: Adobe Illustrator 23.0.0, SVG Export Plug-In . SVG Version: 6.00 Build 0)  -->
<svg version="1.1" id="Warstwa_1" xmlns="http://www.w3.org/2000/svg" xmlns:xlink="http://www.w3.org/1999/xlink" x="0px" y="0px"
	 viewBox="0 0 72.1 72.7" style="enable-background:new 0 0 72.1 72.7;" xml:space="preserve">
<style type="text/css">
	.st0{fill:#578769;}
</style>
<path class="st0" d="M57.3-0.1H14.9C6.7-0.1,0,6.6,0,14.8v43.2c0,8.2,6.6,14.8,14.8,14.8h42.5c8.2,0,14.8-6.6,14.8-14.8V14.8
	C72.2,6.6,65.5-0.1,57.3-0.1z M66.9,59c0,4.7-3.8,8.5-8.5,8.5H13.8c-4.7,0-8.5-3.8-8.5-8.5V13.8c0-4.7,3.8-8.5,8.5-8.5h44.6
	c4.7,0,8.5,3.8,8.5,8.5V59z"/>
<path class="st0" d="M12.4,33.3h18.8c1,0,1.8-0.8,1.8-1.8V12.7c0-1,0.8-1.8,1.8-1.8h2.6c1,0,1.8,0.8,1.8,1.8v18.8
	c0,1,0.8,1.8,1.8,1.8h18.8c1,0,1.8,0.8,1.8,1.8v2.6c0,1-0.8,1.8-1.8,1.8H41c-1,0-1.8,0.8-1.8,1.8v18.8c0,1-0.8,1.8-1.8,1.8h-2.6
	c-1,0-1.8-0.8-1.8-1.8V41.2c0-1-0.8-1.8-1.8-1.8H12.4c-1,0-1.8-0.8-1.8-1.8v-2.6C10.6,34.1,11.4,33.3,12.4,33.3z"/>
</svg>
